<svg xmlns="http://www.w3.org/2000/svg" viewBox="0 0 194.44 232.85"><defs><style>.cls-1{fill:#f7c24f;}.cls-2{fill:#030202;}.cls-3{fill:#020201;}.cls-4{fill:#61b2e3;}</style></defs><title>form_selected</title><g id="Layer_2" data-name="Layer 2"><g id="Layer_1-2" data-name="Layer 1"><path class="cls-1" d="M32.68,55.21H55.17c0,.52,0,1,0,1.56q0,64.53,0,129.07c0,.87,0,1.42,1.2,1.41q36-.07,72,0l0,17.52c-.44,0-.88.06-1.31.06-7.56,0-15.12,0-22.68,0-1,0-1.27.29-1.23,1.27.08,1.92.07,3.84,0,5.76,0,.89.19,1.15,1.11,1.13,3.84-.06,7.68,0,11.52,0l12.59,0c0,6.24,0,12.48,0,18.72,0,.91-.18,1.22-1.17,1.22q-63.06,0-126.12,0C0,232.85,0,232.34,0,231.5q0-31.14,0-62.28Q0,113,0,56.78C0,55-.2,55.23,1.52,55.23H24.2a31.09,31.09,0,0,0-.6,6.43q0,14.7,0,29.4,0,.61,0,1.23l-.36.17c-2.31-2.38-4.6-4.76-6.93-7.12a10.24,10.24,0,0,0-1.73-1.47,3.81,3.81,0,0,0-4.57.43A3.65,3.65,0,0,0,8.9,88.52a5.91,5.91,0,0,0,1.46,2.17c4.36,4.35,8.7,8.73,13.08,13.05,2.88,2.85,5.46,2.85,8.33,0,4.58-4.53,9.1-9.12,13.66-13.66a3.94,3.94,0,0,0,1-4.09c-.83-3-4.72-3.78-7.06-1.32s-4.59,4.69-6.92,7c-.17.17-.27.53-.72.38a5.54,5.54,0,0,1-.07-.65q0-16.14,0-32.28A7.8,7.8,0,0,1,32.68,55.21Z"/><path d="M128.37,187.22q-36,0-72,0c-1.25,0-1.2-.54-1.2-1.41q0-64.53,0-129.07c0-.52,0-1,0-1.56,0-1,0-2,0-3q0-25.43,0-50.87C55.18.27,55.45,0,56.54,0q46.55,0,93.1,0c1.09,0,1.39.27,1.36,1.36-.08,2.68-.09,5.36,0,8,0,1.12-.34,1.27-1.34,1.27q-29.57,0-59.15,0c-7.84,0-15.68,0-23.51,0-.93,0-1.21.22-1.21,1.19q0,81.82,0,163.65c0,1.11.43,1.18,1.32,1.18q29.87,0,59.75,0c1.55,0,1.55,0,1.55,1.6Q128.4,182.72,128.37,187.22Z"/><path d="M194.41,115.34q0,35.27,0,70.55c0,1.07-.24,1.37-1.35,1.37q-17.22-.07-34.43,0c-1,0-1.26-.26-1.23-1.24.07-2.76.06-5.52,0-8.28,0-.88.19-1.13,1.11-1.13,8,0,16,0,24,.05,1.1,0,1.3-.32,1.29-1.34q0-65.15,0-130.29c0-1.55,0-1.55,1.6-1.55,2.64,0,5.28,0,7.92,0,.9,0,1.12.21,1.11,1.11,0,8.6,0,17.2,0,25.79Z"/><path class="cls-2" d="M128.41,212.91l-12.59,0c-3.84,0-7.68,0-11.52,0-.92,0-1.14-.25-1.11-1.13.07-1.92.08-3.84,0-5.76,0-1,.2-1.27,1.23-1.27,7.56,0,15.12,0,22.68,0,.44,0,.88,0,1.31-.06a9.86,9.86,0,0,0,10.3-10c.06-10.55,0-21.11,0-31.66,0-.33.13-.71-.12-.95-2.44,2.36-4.88,4.69-7.27,7.08a5,5,0,0,1-3.3,1.72,3.78,3.78,0,0,1-3.85-2.09,4.07,4.07,0,0,1,.73-4.66q5.78-5.84,11.6-11.64c.76-.76,1.52-1.54,2.3-2.28,2.74-2.59,5.25-2.6,8,0,2,2,4,4,6,6l7,7a7.38,7.38,0,0,1,1.34,1.68,3.91,3.91,0,0,1-5.86,5c-1.42-1.22-2.73-2.58-4-3.92s-2.76-3-4.13-4.44l-.37.27q0,.57,0,1.14c0,10.23,0,20.47,0,30.7a18.64,18.64,0,0,1-9.06,16.55A18.09,18.09,0,0,1,128.41,212.91Z"/><path class="cls-3" d="M32.68,55.21a7.8,7.8,0,0,0-1,3.91q0,16.14,0,32.28a5.54,5.54,0,0,0,.07.65c.45.14.55-.21.72-.38,2.34-2.3,4.67-4.61,6.92-7S45.62,83,46.44,86a3.94,3.94,0,0,1-1,4.09c-4.56,4.54-9.08,9.13-13.66,13.66-2.88,2.85-5.45,2.84-8.33,0-4.38-4.33-8.72-8.7-13.08-13.05A5.91,5.91,0,0,1,8.9,88.52,3.65,3.65,0,0,1,10,84.29a3.81,3.81,0,0,1,4.57-.43,10.24,10.24,0,0,1,1.73,1.47c2.32,2.36,4.62,4.75,6.93,7.12l.36-.17q0-.61,0-1.23,0-14.7,0-29.4a31.09,31.09,0,0,1,.6-6.43,18.65,18.65,0,0,1,12.23-13c2.73-1,5.58-.84,8.41-.85.55,0,.54.31.54.69,0,2.23,0,4.47,0,6.7,0,.64-.29.68-.8.69a20.14,20.14,0,0,0-5.12.3A9.46,9.46,0,0,0,32.68,55.21Z"/><path d="M121.21,64.83q21.6,0,43.2,0c1,0,1.27.22,1.23,1.23-.08,2.44-.07,4.88,0,7.32,0,.9-.21,1.11-1.11,1.1-9.12,0-18.24,0-27.36,0q-29.52,0-59,0c-1.08,0-1.39-.25-1.35-1.35.09-2.4.07-4.8,0-7.2,0-.9.21-1.11,1.11-1.1Q99.55,64.85,121.21,64.83Z"/><path d="M121.21,84q21.6,0,43.2,0c1,0,1.27.22,1.23,1.22-.08,2.44-.07,4.88,0,7.32,0,.9-.21,1.11-1.11,1.11-9,0-17.92,0-26.88,0q-29.76,0-59.52,0c-1.08,0-1.39-.25-1.35-1.35.09-2.4.07-4.8,0-7.2,0-.9.21-1.11,1.11-1.11Q99.55,84.05,121.21,84Z"/><path d="M121.09,112.83q-21.54,0-43.08,0c-1,0-1.26-.22-1.23-1.23.08-2.44.07-4.88,0-7.32,0-.9.21-1.11,1.11-1.1,9.28,0,18.56,0,27.84,0q29.28,0,58.56,0c1.08,0,1.39.25,1.35,1.35-.09,2.4-.08,4.8,0,7.2,0,.9-.21,1.1-1.11,1.1Q142.81,112.8,121.09,112.83Z"/><path d="M121.33,124.83q21.54,0,43.08,0c1,0,1.26.23,1.23,1.23-.08,2.44-.07,4.88,0,7.32,0,.91-.22,1.11-1.11,1.1-9.68,0-19.36,0-29,0q-28.68,0-57.36,0c-1.09,0-1.39-.26-1.35-1.35.09-2.4.08-4.8,0-7.2,0-.91.22-1.1,1.11-1.1Q99.61,124.85,121.33,124.83Z"/><path class="cls-4" d="M192.13,35.55c-1.58,0-3.17,0-4.75,0-8.75.07-17.5.13-26.25.25-1.1,0-1.32-.3-1.28-1.33.29-8.82.52-17.65.78-26.47,0-1.42.16-2.83.25-4.53l31.36,31.77Z"/><path d="M97.09,48c-6.4,0-12.8,0-19.2,0-.9,0-1.13-.2-1.11-1.11.07-2.56,0-5.12,0-7.68,0-.68.19-.86.86-.85q19.56,0,39.11,0c.68,0,.87.18.86.86,0,2.6,0,5.2,0,7.8,0,.79-.2,1-1,1C110.13,48,103.61,48,97.09,48Z"/><path d="M89.89,158.43c-4,0-8.08,0-12.12,0-.78,0-1-.2-1-1,.05-2.6,0-5.2,0-7.8,0-.68.18-.86.86-.85q12.36,0,24.72,0c.68,0,.87.18.86.86,0,2.6,0,5.2,0,7.8,0,.79-.2,1-1,1C98.13,158.4,94,158.43,89.89,158.43Z"/></g></g></svg>