<svg xmlns="http://www.w3.org/2000/svg" viewBox="0 0 356.97 356.97"><defs><style>.cls-1{fill:#dcdbdb;}.cls-2{fill:#b0afaf;}.cls-3{fill:none;stroke:#b6b5b5;stroke-miterlimit:10;stroke-width:10px;stroke-dasharray:10.83 9.85 9.85 9.84 0.01 0;}</style></defs><title>globe_unselected</title><g id="Layer_2" data-name="Layer 2"><g id="Layer_1-2" data-name="Layer 1"><path class="cls-1" d="M178.79,261.76a83.34,83.34,0,1,1,83.34-83.34A83.37,83.37,0,0,1,178.79,261.76Z"/><path class="cls-2" d="M178.79,57.27C112,57.27,57.64,111.71,57.64,178.42S112,299.57,178.79,299.57a121.15,121.15,0,1,0,0-242.29ZM117,178.42a169.17,169.17,0,0,1,3.69-35.88h51.91v71.69H120.67A168.11,168.11,0,0,1,117,178.42ZM185,70.27c21.66,3.68,40.21,27.22,48.81,60H185Zm-12.35,0v60H123.84C132.44,97.42,151,74,172.65,70.27Zm0,156.38v60c-21.66-3.68-40.21-27.22-48.81-60ZM185,286.57v-60H233.8C224.56,259.42,206.59,282.89,185,286.57Zm0-72.27V142.54h51.91a176.51,176.51,0,0,1,0,71.76Zm64.26-71.76H280.8A115.45,115.45,0,0,1,287,178.42a113.61,113.61,0,0,1-6.21,35.88H249.25a218.65,218.65,0,0,0,3.1-35.88A133.32,133.32,0,0,0,249.25,142.54Zm26.57-12.35h-29c-5.56-21.66-14.87-39.56-26-52.56C244.92,88.17,264.7,106.73,275.82,130.19ZM136.77,78.28c-11.77,13-20.43,30.9-26,52.56h-29A103.8,103.8,0,0,1,136.77,78.28ZM76.19,142.54h31.55a209,209,0,0,0,0,71.76H76.19C71.86,203.18,70,190.83,70,178.42A99.52,99.52,0,0,1,76.19,142.54Zm4.91,84.1h29c5.56,21.66,14.8,39.56,26,52.56A114,114,0,0,1,81.11,226.65Zm139.7,51.91c11.77-13,20.43-30.9,26-52.56h29A103.8,103.8,0,0,1,220.81,278.56Z"/><circle class="cls-3" cx="178.48" cy="178.48" r="173.48"/></g></g></svg>