<svg xmlns="http://www.w3.org/2000/svg" viewBox="0 0 395.1 421.59"><defs><style>.cls-1{fill:#5fb3e5;}.cls-2{fill:#272d33;}.cls-3{fill:#fefefe;}</style></defs><title>mail_selected</title><g id="Layer_2" data-name="Layer 2"><g id="Layer_1-2" data-name="Layer 1"><path class="cls-1" d="M51.84,0H343.26c-.09,1.64-.25,3.28-.25,4.91q0,41.57,0,83.14c0,17.7.14,35.39.22,53.09a172,172,0,0,0,0,22.21c-.5,11.69-.26,23.38-.12,35.07a13.93,13.93,0,0,1-1.27,1q-70.78,43.09-141.52,86.23c-2.28,1.4-3.78,1.08-5.85-.19q-44.37-27.15-88.83-54.17-26.83-16.37-53.6-32.85l-.2-35.07a179.91,179.91,0,0,0,0-22.21c0-1.64.14-3.29.14-4.93q.05-43.83.07-87.66C52.08,32.36,51.93,16.18,51.84,0ZM278.19,141.14c.39-11.33-.46-22.51-4.33-33.25C260.33,70.29,225.3,49.1,185.45,54.28,148.95,59,118.73,91.94,117,128.81c-1.89,40.7,23.83,75,63.57,83.95,19.72,4.43,38.68,1.28,56.46-8.49,2.78-1.53,4.72-3.67,5.06-7s-.68-6.36-3.51-8.28c-3.67-2.5-7.34-1.8-11.21.15-22.64,11.4-45,10.62-65.74-4-21-14.79-29.54-35.81-25.94-61.27,3.93-27.78,28.91-50.55,56.06-52.48,32.6-2.31,58.42,18.45,66,45.26,3.4,12,2.28,24.2,2.3,36.37a6.38,6.38,0,0,1-.6,2.37c-1.61,3.85-5.33,5.79-9.72,5.15-3.94-.57-6.7-3.5-7.12-7.86-.73-7.65.17-15.31-.5-23-2.28-26.28-28.31-45.42-54.12-39.52a44.78,44.78,0,0,0-13.2,82.42A44.48,44.48,0,0,0,225.36,169c2.68-2.12,3.81-2,6,.58A26.69,26.69,0,0,0,276,162.63C279.07,155.68,278,148.35,278.19,141.14Z"/><path class="cls-2" d="M343.22,141.14q24.85,17.91,49.72,35.79a4.81,4.81,0,0,1,2.12,4.48Q395,299.72,395.1,418c0,3-1,3.51-3.72,3.51q-193.83-.1-387.67,0c-3.83,0-3.68-1.71-3.68-4.39q.07-104.94,0-209.88c0-8.64,0-17.29-.07-25.93a4.78,4.78,0,0,1,2.14-4.47q24.91-17.82,49.73-35.78a179.86,179.86,0,0,1,0,22.21L25.16,182.43l26.89,16q26.8,16.43,53.6,32.85,44.41,27.1,88.83,54.17c2.08,1.27,3.57,1.59,5.85.19Q271,242.42,341.86,199.4a14,14,0,0,0,1.27-1l26.78-16-26.66-19.08A172,172,0,0,1,343.22,141.14Zm-324.93,58V396.41l162-98.62Zm196.5,98.64,162,98.65V199.16ZM41.94,403.1H353c-.85-.62-1.17-.89-1.52-1.1q-75.59-46-151.15-92.09c-2.55-1.56-4.14-.84-6.22.43q-74.33,45.32-148.71,90.58C44.43,401.52,43.45,402.15,41.94,403.1Z"/><path class="cls-3" d="M278.19,141.14c-.18,7.22.87,14.55-2.2,21.5a26.69,26.69,0,0,1-44.61,6.93c-2.22-2.55-3.36-2.7-6-.58a44.48,44.48,0,0,1-50.49,3.63,44.78,44.78,0,0,1,13.2-82.42c25.81-5.9,51.84,13.23,54.12,39.52.67,7.68-.23,15.35.5,23,.42,4.35,3.18,7.28,7.12,7.86,4.4.64,8.11-1.3,9.72-5.15a6.38,6.38,0,0,0,.6-2.37c0-12.17,1.1-24.39-2.3-36.37-7.62-26.81-33.44-47.56-66-45.26-27.15,1.92-52.13,24.7-56.06,52.48-3.61,25.47,4.9,46.49,25.94,61.27,20.75,14.59,43.09,15.36,65.74,4,3.87-1.95,7.54-2.65,11.21-.15,2.83,1.92,3.86,4.85,3.51,8.28s-2.28,5.48-5.06,7c-17.78,9.77-36.74,12.92-56.46,8.49-39.74-8.92-65.46-43.25-63.57-83.95,1.72-36.87,31.93-69.78,68.43-74.52,39.85-5.18,74.88,16,88.41,53.61C277.73,118.62,278.58,129.81,278.19,141.14Zm-80.6,19.59c15.14,0,26.82-12,26.75-27.42-.06-14.2-12.4-26.26-26.83-26.22a27.3,27.3,0,0,0-26.87,26.75A26.78,26.78,0,0,0,197.59,160.72Z"/><path class="cls-1" d="M197.59,160.72a26.78,26.78,0,0,1-27-26.9,27.3,27.3,0,0,1,26.87-26.75c14.43,0,26.77,12,26.83,26.22C224.41,148.73,212.74,160.7,197.59,160.72Z"/></g></g></svg>