<svg xmlns="http://www.w3.org/2000/svg" viewBox="0 0 24.34 21.6"><defs><style>.cls-1{fill:#2c2f36;}.cls-2{fill:#5db3e6;}.cls-3{fill:#fff;}</style></defs><title>message_selected</title><g id="Layer_2" data-name="Layer 2"><g id="Layer_1-2" data-name="Layer 1"><path class="cls-1" d="M20.39,6.43H.47A.47.47,0,0,0,0,6.9V21.13a.47.47,0,0,0,.47.47H20.39a.47.47,0,0,0,.47-.47V6.9A.47.47,0,0,0,20.39,6.43Zm-.47,13.08L14,13.63l-.67.67,6.35,6.35H1.14L7.49,14.3l-.67-.67L.95,19.51V7.38h19Z"/><path class="cls-1" d="M19,7.38,10.43,15.9,1.91,7.38h-1v.38l9.15,9.15a.47.47,0,0,0,.67,0l9.15-9.15V7.38Z"/><path class="cls-2" d="M16.25,8.61c-.43.37-.85.75-1.28,1.11a.54.54,0,0,1-.32.1s-.11-.15-.11-.23c0-1.83-.07-3.67.09-5.48A4.77,4.77,0,0,1,19.46,0a4.87,4.87,0,0,1,4.82,4.14A4.68,4.68,0,0,1,22,9a4.74,4.74,0,0,1-5.43-.19Zm.56-4.41a3.09,3.09,0,0,0,.32.72c.6.76,1.23,1.49,1.86,2.22a.5.5,0,0,0,.83,0c.62-.71,1.24-1.41,1.84-2.13a1.24,1.24,0,0,0,0-1.72,1.63,1.63,0,0,0-1.85-.36.62.62,0,0,1-.65,0A1.63,1.63,0,0,0,16.81,4.2Z"/><path class="cls-3" d="M16.81,4.2a1.63,1.63,0,0,1,2.3-1.26.62.62,0,0,0,.65,0,1.63,1.63,0,0,1,1.85.36,1.24,1.24,0,0,1,0,1.72c-.6.72-1.22,1.43-1.84,2.13a.5.5,0,0,1-.83,0c-.63-.73-1.26-1.47-1.86-2.22A3.09,3.09,0,0,1,16.81,4.2Z"/></g></g></svg>