<?xml version="1.0" encoding="utf-8"?>
<!-- Generator: Adobe Illustrator 21.0.2, SVG Export Plug-In . SVG Version: 6.00 Build 0)  -->
<svg version="1.1" id="Layer_1" xmlns="http://www.w3.org/2000/svg" xmlns:xlink="http://www.w3.org/1999/xlink" x="0px" y="0px"
	 viewBox="0 0 44.6 51.1" style="enable-background:new 0 0 44.6 51.1;" xml:space="preserve">
<style type="text/css">
	.st0{fill:#272A32;}
	.st1{fill:#5EB4E7;}
</style>
<title>opportunity23</title>
<path class="st0" d="M39.9,39.5c-2.5-8-5-15.6-7.4-23.3c-1.3-4-4.6-5.7-8.5-4.4L0.6,19.2c2.1-3.3,2.9-7.2,5.9-9.7
	c1.3-1.1,2.9-2,4.6-2.5c6.9-2.3,13.9-4.5,20.9-6.6c2.7-0.8,4.5,0.1,5.4,2.8c2.2,6.7,4.2,13.5,6.5,20.2c0.9,2.7,1.4,5.5,0.3,8.2
	S41.3,36.7,39.9,39.5z"/>
<path class="st0" d="M37.3,40.1c0,1.6-1,3.1-2.6,3.6c-7.5,2.4-15,4.8-22.6,7.2c-1.9,0.7-4.1-0.3-4.8-2.3c0-0.1-0.1-0.3-0.1-0.4
	c-2.3-7.3-4.7-14.6-7-21.9c-0.8-2.7,0.2-4.5,2.9-5.4l21.5-6.9c2.6-0.8,4.5,0.1,5.3,2.7c2.3,7.1,4.5,14.2,6.8,21.3
	C37,38.8,37.1,39.5,37.3,40.1z M26.1,16.3c-0.2,0-0.5,0.1-0.8,0.2L4.1,23.3c-1.7,0.5-1.9,0.9-1.4,2.5C4.9,32.9,7.1,39.9,9.4,47
	c0.5,1.7,1,1.9,2.6,1.4l20.9-6.6c2-0.7,2.2-1,1.6-3c-1.2-3.7-2.4-7.4-3.6-11c-1.1-3.3-2.1-6.7-3.1-10C27.5,16.9,27.1,16.3,26.1,16.3
	z"/>
<path class="st1" d="M18,41.6c0,1.9-1.6,3.4-3.4,3.4c-1.9,0-3.4-1.6-3.4-3.4s1.6-3.4,3.4-3.4C16.5,38.2,18,39.7,18,41.6L18,41.6z"/>
<path class="st1" d="M27.9,40.7c-1.9,0-3.4-1.6-3.3-3.4s1.6-3.4,3.4-3.3c1.8,0,3.3,1.5,3.3,3.4C31.4,39.2,29.9,40.7,27.9,40.7
	C28,40.7,28,40.7,27.9,40.7z"/>
<path class="st1" d="M6.9,28.2c0-2.1,1.5-3.4,3.7-3.5c1.7,0.1,3.1,1.6,3.1,3.4c0.1,1.8-1.3,3.4-3.1,3.4c-0.1,0-0.1,0-0.2,0
	c-1.8,0.1-3.4-1.4-3.4-3.2C6.9,28.3,6.9,28.3,6.9,28.2z"/>
<path class="st1" d="M27.5,25c-0.1,0.3-0.3,0.7-0.5,1s-0.3,0.3-0.6,0.2c-0.2-0.1-0.4,0-0.5,0.1c-0.2,0.1-0.2,0.4-0.1,0.6
	c0.1,0.2,0,0.4-0.1,0.5c0,0-0.1,0-0.1,0c-0.3,0.2-0.7,0.3-1,0.4c-0.3,0.1-0.5,0-0.6-0.3s-0.3-0.4-0.5-0.5c-0.3,0-0.5,0.2-0.5,0.4
	c-0.1,0.3-0.3,0.4-0.6,0.3c-0.3-0.1-0.7-0.3-1-0.4c-0.2-0.1-0.3-0.3-0.2-0.5c0,0,0,0,0-0.1c0.1-0.2,0-0.4-0.1-0.6
	c-0.1-0.2-0.4-0.2-0.6-0.1c-0.2,0.1-0.4,0-0.5-0.1c0,0,0,0,0-0.1c-0.2-0.3-0.3-0.7-0.4-1c-0.1-0.3,0-0.5,0.3-0.5s0.5-0.3,0.5-0.5
	s-0.1-0.4-0.5-0.5s-0.4-0.3-0.3-0.5c0.1-0.3,0.3-0.7,0.4-1c0.1-0.2,0.3-0.3,0.5-0.2c0,0,0,0,0.1,0c0.3,0.1,0.6,0,0.7-0.3
	c0.1-0.1,0.1-0.3,0-0.4c-0.1-0.2,0-0.4,0.2-0.5c0,0,0,0,0,0c0.3-0.2,0.7-0.3,1-0.5h0.3c0.1,0.1,0.2,0.3,0.3,0.4
	c0.1,0.3,0.4,0.4,0.7,0.3c0.2-0.1,0.3-0.2,0.3-0.3c0.1-0.1,0.2-0.3,0.3-0.4h0.3c0.3,0.1,0.7,0.3,1,0.4s0.4,0.3,0.3,0.6
	c-0.1,0.3,0.1,0.6,0.4,0.7c0.1,0,0.2,0,0.3,0c0.3-0.1,0.5,0,0.6,0.3s0.3,0.6,0.4,1v0.3c-0.1,0.1-0.3,0.2-0.4,0.3
	c-0.3,0.1-0.4,0.4-0.3,0.7c0.1,0.2,0.2,0.3,0.3,0.3c0.1,0.1,0.3,0.2,0.4,0.3L27.5,25z M26.6,22.8c-0.1-0.3-0.1-0.3-0.3-0.3
	c-0.7,0-1.2-0.6-1.3-1.3c0-0.2-0.1-0.3-0.3-0.3c-0.4,0.7-1.2,0.9-1.9,0.5c-0.2-0.1-0.4-0.3-0.5-0.5c-0.2,0-0.3,0.1-0.3,0.3
	c0,0.7-0.6,1.3-1.3,1.3c-0.2,0-0.3,0.1-0.3,0.3c0.7,0.4,0.9,1.2,0.5,1.9c-0.1,0.2-0.3,0.4-0.5,0.5c0,0.2,0.1,0.3,0.4,0.3
	c0.7,0,1.2,0.6,1.3,1.3c0,0.2,0.1,0.3,0.3,0.3c0.4-0.7,1.2-0.9,1.9-0.5c0.2,0.1,0.4,0.3,0.5,0.5c0.2,0,0.3-0.1,0.3-0.4
	c0-0.7,0.6-1.3,1.3-1.3c0.2,0,0.3-0.1,0.3-0.3c-0.7-0.4-0.9-1.2-0.5-1.9C26.2,23.1,26.4,22.9,26.6,22.8L26.6,22.8z"/>
<path class="st1" d="M23.6,25.9c-1,0-1.9-0.8-1.9-1.9c0-1,0.8-1.9,1.9-1.9c1,0,1.9,0.8,1.9,1.9c0,0,0,0,0,0
	C25.4,25,24.6,25.9,23.6,25.9z M23.6,25.1c0.6,0,1.1-0.5,1.1-1.1c0-0.6-0.5-1.1-1.1-1.1c-0.6,0-1.1,0.5-1.1,1.1c0,0,0,0,0,0
	C22.5,24.6,23,25.1,23.6,25.1L23.6,25.1z"/>
</svg>
