<?xml version="1.0" encoding="iso-8859-1"?>
<!-- Generator: Adobe Illustrator 19.0.0, SVG Export Plug-In . SVG Version: 6.00 Build 0)  -->
<svg version="1.1" id="Layer_1" xmlns="http://www.w3.org/2000/svg" xmlns:xlink="http://www.w3.org/1999/xlink" x="0px" y="0px"
	 viewBox="0 0 435.324 435.324" style="enable-background:new 0 0 435.324 435.324;" xml:space="preserve">
<g>
	<path d="M201.287,291.538c7.036,22.596,14.521,28.862,16.375,29.443c1.854-0.581,9.339-6.847,16.375-29.443
		c5.719-18.365,9.284-41.583,10.309-66.538h-53.368C192.003,249.955,195.568,273.173,201.287,291.538z" fill="#55ba0d" />
	<path d="M217.662,99.02c-1.854,0.581-9.339,6.847-16.375,29.443c-5.719,18.365-9.284,41.583-10.309,66.538h53.368
		c-1.025-24.955-4.59-48.173-10.309-66.538C227.001,105.866,219.516,99.6,217.662,99.02z" fill="#55ba0d" />
	<path d="M247.991,87.684c16.231,23.292,24.751,65.194,26.378,107.316h68.4C336.555,142.618,298.211,100.095,247.991,87.684z" fill="#55ba0d" />
	<path d="M247.991,332.316c50.219-12.412,88.563-54.935,94.778-107.316h-68.4C272.743,267.123,264.222,309.024,247.991,332.316z" fill="#55ba0d" />
	<path d="M92.555,225c6.215,52.382,44.559,94.905,94.778,107.316c-16.231-23.292-24.751-65.194-26.378-107.316H92.555z" fill="#55ba0d" />
	<path d="M92.555,195h68.4c1.627-42.123,10.148-84.024,26.378-107.316C137.113,100.095,98.769,142.618,92.555,195z" fill="#55ba0d" />
	<circle cx="282.662" cy="405.324" r="30" fill="#55ba0d" />
	<path d="M217.662,0c-115.794,0-210,94.206-210,210s94.206,210,210,210v-30c-99.252,0-180-80.748-180-180s80.748-180,180-180
		s180,80.748,180,180h30C427.662,94.206,333.456,0,217.662,0z" fill="#55ba0d" />
</g>
<g>
</g>
<g>
</g>
<g>
</g>
<g>
</g>
<g>
</g>
<g>
</g>
<g>
</g>
<g>
</g>
<g>
</g>
<g>
</g>
<g>
</g>
<g>
</g>
<g>
</g>
<g>
</g>
<g>
</g>
</svg>
