<svg xmlns="http://www.w3.org/2000/svg" viewBox="0 0 44.61 51.12"><title>opportunity23</title><g id="Layer_2" data-name="Layer 2"><g id="Layer_1-2" data-name="Layer 1"><path d="M39.88,39.49c-2.54-8-5-15.61-7.43-23.28-1.25-4-4.57-5.7-8.53-4.44L.56,19.19C2.67,15.87,3.5,12,6.45,9.45A13.72,13.72,0,0,1,11,6.95C17.92,4.64,24.89,2.49,31.85.3c2.67-.84,4.52.11,5.37,2.78,2.15,6.72,4.22,13.47,6.45,20.16.91,2.74,1.43,5.46.25,8.16S41.3,36.67,39.88,39.49Z" fill="#55ba0d"/><path d="M37.28,40.14a3.73,3.73,0,0,1-2.59,3.59q-11.27,3.64-22.56,7.19a3.73,3.73,0,0,1-4.88-2.65Q3.73,37.33.28,26.38c-.83-2.66.19-4.5,2.86-5.35l21.54-6.85c2.59-.82,4.5.15,5.32,2.7q3.41,10.65,6.81,21.3C37,38.82,37.12,39.49,37.28,40.14ZM26.07,16.32c-.19,0-.5.11-.8.21L4.08,23.27c-1.65.52-1.87.93-1.36,2.53Q6,36.41,9.39,47c.52,1.66,1,1.91,2.63,1.39l20.85-6.62c2-.65,2.22-1,1.57-3-1.19-3.68-2.4-7.35-3.57-11-1.06-3.34-2.09-6.69-3.13-10C27.5,16.92,27.15,16.28,26.07,16.32Z" fill="#55ba0d"/><path d="M18,41.59a3.4,3.4,0,1,1-6.8-.08,3.4,3.4,0,1,1,6.8.08Z" fill="#55ba0d"/><path d="M27.92,40.68a3.38,3.38,0,1,1,3.44-3.39A3.37,3.37,0,0,1,27.92,40.68Z" fill="#55ba0d"/><path d="M6.93,28.23c0-2.06,1.46-3.44,3.7-3.45a3.34,3.34,0,0,1,3.06,3.36,3.3,3.3,0,0,1-3.35,3.45A3.31,3.31,0,0,1,6.93,28.23Z" fill="#55ba0d"/><path d="M27.54,25c-.15.34-.28.69-.45,1s-.29.32-.57.22a.5.5,0,0,0-.55.11.51.51,0,0,0-.13.57.39.39,0,0,1-.23.57,8.23,8.23,0,0,1-1,.4c-.31.11-.49,0-.58-.32s-.25-.44-.51-.45a.52.52,0,0,0-.52.44c-.1.33-.27.44-.59.32a8.25,8.25,0,0,1-1-.41.39.39,0,0,1-.22-.55.52.52,0,0,0-.12-.57.52.52,0,0,0-.57-.12.38.38,0,0,1-.55-.22,8.42,8.42,0,0,1-.42-1c-.1-.28,0-.46.31-.54s.46-.26.46-.53-.14-.42-.47-.52-.4-.27-.3-.53a10.42,10.42,0,0,1,.43-1,.38.38,0,0,1,.54-.21.53.53,0,0,0,.7-.69.39.39,0,0,1,.21-.54c.34-.17.69-.31,1-.46h.25a2.27,2.27,0,0,1,.28.41.53.53,0,0,0,1,0,2.14,2.14,0,0,1,.28-.4h.25c.32.14.66.26,1,.42s.36.29.26.62a.53.53,0,0,0,.66.66c.33-.1.47-.05.62.26s.28.65.42,1v.25a2.12,2.12,0,0,1-.4.28.53.53,0,0,0,0,1,2.22,2.22,0,0,1,.41.28Zm-.92-2.22c-.09-.26-.09-.26-.34-.27A1.31,1.31,0,0,1,25,21.26c0-.23-.09-.3-.29-.33a1.36,1.36,0,0,1-2.36,0c-.19,0-.27.1-.27.32a1.29,1.29,0,0,1-1.26,1.28c-.22,0-.32.07-.34.28a1.36,1.36,0,0,1,0,2.37c0,.21.13.27.35.27a1.3,1.3,0,0,1,1.26,1.28c0,.22.09.29.27.32a1.36,1.36,0,0,1,2.37,0c.21,0,.27-.13.28-.35a1.29,1.29,0,0,1,1.28-1.26c.23,0,.29-.09.32-.27A1.36,1.36,0,0,1,26.62,22.81Z" fill="#55ba0d"/><path d="M23.57,25.87A1.89,1.89,0,1,1,25.45,24,1.88,1.88,0,0,1,23.57,25.87Zm0-.8A1.09,1.09,0,1,0,22.47,24,1.1,1.1,0,0,0,23.57,25.08Z" fill="#55ba0d"/></g></g></svg>